<mxfile host="app.diagrams.net" modified="2023-07-21T11:37:43.277Z" agent="Mozilla/5.0 (Macintosh; Intel Mac OS X 10_15_7) AppleWebKit/537.36 (KHTML, like Gecko) Chrome/114.0.0.0 Safari/537.36" version="21.6.5" etag="dVuK8Veq_mHGp5XaS75u" type="github">
  <diagram name="Page-1" id="6ioW1X0MBB0_kFcwR4Rb">
    <mxGraphModel>
      <root>
        <mxCell id="0" />
        <mxCell id="1" parent="0" />
      </root>
    </mxGraphModel>
  </diagram>
</mxfile>
